<svg width="223" height="48" viewBox="0 0 223 48" fill="none" xmlns="http://www.w3.org/2000/svg">
<path d="M68.6484 33.2461C67.0703 33.2461 65.7031 32.8828 64.5469 32.1562C63.3906 31.4219 62.5 30.4062 61.875 29.1094C61.25 27.8125 60.9375 26.3125 60.9375 24.6094V24.3281C60.9375 22.6094 61.25 21.1055 61.875 19.8164C62.5078 18.5195 63.3711 17.5078 64.4648 16.7812C65.5586 16.0547 66.8008 15.6914 68.1914 15.6914C69.5195 15.6914 70.6445 15.8438 71.5664 16.1484C72.4961 16.4531 73.2891 16.8633 73.9453 17.3789V20.8242H72.0469L71.8008 18.3516C71.418 18.1016 70.9492 17.9141 70.3945 17.7891C69.8398 17.6562 69.1836 17.5898 68.4258 17.5898C67.4492 17.5898 66.5703 17.8711 65.7891 18.4336C65.0078 18.9961 64.3906 19.7812 63.9375 20.7891C63.4844 21.7891 63.2578 22.9609 63.2578 24.3047V24.6094C63.2578 25.9688 63.4648 27.1562 63.8789 28.1719C64.3008 29.1797 64.9141 29.9648 65.7188 30.5273C66.5234 31.082 67.5 31.3594 68.6484 31.3594C69.4297 31.3594 70.0898 31.293 70.6289 31.1602C71.168 31.0195 71.6445 30.8398 72.0586 30.6211V26.6133L68.7891 26.4961V24.7969H74.3672V31.4062C73.875 31.8672 73.168 32.2891 72.2461 32.6719C71.332 33.0547 70.1328 33.2461 68.6484 33.2461ZM76.5586 33V31.5234L78.4688 31.1953V22.1367L76.5586 21.8086V20.3203H80.7773V31.1953L82.6875 31.5234V33H76.5586ZM78.3516 17.1914V14.7188H80.7773V17.1914H78.3516ZM88.7578 33.1992C87.8203 33.1992 87.0742 32.9258 86.5195 32.3789C85.9727 31.8242 85.6992 30.9414 85.6992 29.7305V22.0312H83.6953V20.3203H85.6992V17.2617H88.0078V20.3203H90.7617V22.0312H88.0078V29.7305C88.0078 30.3398 88.1289 30.7891 88.3711 31.0781C88.6133 31.3672 88.9375 31.5117 89.3438 31.5117C89.6172 31.5117 89.9219 31.4883 90.2578 31.4414C90.5938 31.3867 90.8555 31.3398 91.043 31.3008L91.3594 32.8125C91.0234 32.9141 90.6094 33.0039 90.1172 33.082C89.6328 33.1602 89.1797 33.1992 88.7578 33.1992ZM92.543 33V31.5234L94.4531 31.1953V16.5352L92.543 16.207V14.7188H96.7617V22.0078C97.1992 21.3984 97.7344 20.9258 98.3672 20.5898C99 20.2539 99.7031 20.0859 100.477 20.0859C101.836 20.0859 102.891 20.4922 103.641 21.3047C104.391 22.1172 104.766 23.3672 104.766 25.0547V31.1953L106.676 31.5234V33H100.547V31.5234L102.457 31.1953V25.0312C102.457 23.9844 102.23 23.2109 101.777 22.7109C101.332 22.2109 100.664 21.9609 99.7734 21.9609C99.1406 21.9609 98.5625 22.1133 98.0391 22.418C97.5234 22.7148 97.0977 23.1211 96.7617 23.6367V31.1953L98.6719 31.5234V33H92.543ZM113.367 33.2461C111.992 33.2461 110.918 32.8047 110.145 31.9219C109.371 31.0391 108.984 29.6641 108.984 27.7969V22.1367L107.531 21.8086V20.3203H108.984H111.293V27.8203C111.293 29.1719 111.492 30.1016 111.891 30.6094C112.289 31.1172 112.91 31.3711 113.754 31.3711C114.574 31.3711 115.25 31.207 115.781 30.8789C116.32 30.543 116.727 30.0703 117 29.4609V22.1367L115.301 21.8086V20.3203H117H119.309V31.1953L120.762 31.5234V33H117.234L117.082 31.125C116.684 31.8047 116.168 32.3281 115.535 32.6953C114.91 33.0625 114.188 33.2461 113.367 33.2461ZM129.129 33.2461C128.301 33.2461 127.582 33.0898 126.973 32.7773C126.363 32.457 125.855 31.9883 125.449 31.3711L125.238 33H123.246V16.5352L121.336 16.207V14.7188H125.555V21.8203C125.953 21.2578 126.445 20.8281 127.031 20.5312C127.625 20.2344 128.316 20.0859 129.105 20.0859C130.152 20.0859 131.043 20.3711 131.777 20.9414C132.52 21.5039 133.086 22.2969 133.477 23.3203C133.875 24.3438 134.074 25.5352 134.074 26.8945V27.1406C134.074 28.3594 133.875 29.4258 133.477 30.3398C133.086 31.2539 132.52 31.9688 131.777 32.4844C131.043 32.9922 130.16 33.2461 129.129 33.2461ZM128.543 31.3711C129.629 31.3711 130.434 30.9844 130.957 30.2109C131.488 29.4375 131.754 28.4141 131.754 27.1406V26.8945C131.754 25.918 131.637 25.0625 131.402 24.3281C131.168 23.5859 130.812 23.0078 130.336 22.5938C129.859 22.1719 129.254 21.9609 128.52 21.9609C127.809 21.9609 127.207 22.1328 126.715 22.4766C126.23 22.8203 125.844 23.2812 125.555 23.8594V29.4609C125.844 30.0469 126.234 30.5117 126.727 30.8555C127.227 31.1992 127.832 31.3711 128.543 31.3711ZM141.879 33V31.5234L143.789 31.1953V17.7539L141.879 17.4258V15.9375H143.789H149.719C150.938 15.9375 151.977 16.1523 152.836 16.582C153.695 17.0039 154.352 17.5977 154.805 18.3633C155.258 19.1289 155.484 20.0234 155.484 21.0469C155.484 22.0781 155.258 22.9766 154.805 23.7422C154.352 24.5078 153.695 25.1016 152.836 25.5234C151.977 25.9453 150.938 26.1562 149.719 26.1562H146.098V31.1953L148.008 31.5234V33H141.879ZM146.098 24.3516H149.719C150.875 24.3516 151.738 24.043 152.309 23.4258C152.887 22.8008 153.176 22.0156 153.176 21.0703C153.176 20.125 152.887 19.3359 152.309 18.7031C151.738 18.0703 150.875 17.7539 149.719 17.7539H146.098V24.3516ZM156.984 33V31.5234L158.895 31.1953V22.1367L156.984 21.8086V20.3203H160.957L161.156 21.9375L161.18 22.1602C161.539 21.5117 161.98 21.0039 162.504 20.6367C163.035 20.2695 163.641 20.0859 164.32 20.0859C164.562 20.0859 164.809 20.1094 165.059 20.1562C165.316 20.1953 165.5 20.2344 165.609 20.2734L165.305 22.418L163.699 22.3242C163.09 22.2852 162.578 22.4258 162.164 22.7461C161.75 23.0586 161.43 23.4805 161.203 24.0117V31.1953L163.113 31.5234V33H156.984ZM172.512 33.2461C171.34 33.2461 170.328 32.9727 169.477 32.4258C168.633 31.8711 167.98 31.1094 167.52 30.1406C167.059 29.1641 166.828 28.0508 166.828 26.8008V26.543C166.828 25.293 167.059 24.1836 167.52 23.2148C167.98 22.2383 168.633 21.4727 169.477 20.918C170.328 20.3633 171.332 20.0859 172.488 20.0859C173.66 20.0859 174.668 20.3633 175.512 20.918C176.363 21.4727 177.02 22.2344 177.48 23.2031C177.941 24.1719 178.172 25.2852 178.172 26.543V26.8008C178.172 28.0586 177.941 29.1758 177.48 30.1523C177.02 31.1211 176.367 31.8789 175.523 32.4258C174.68 32.9727 173.676 33.2461 172.512 33.2461ZM172.512 31.4414C173.246 31.4414 173.859 31.2422 174.352 30.8438C174.852 30.4375 175.227 29.8867 175.477 29.1914C175.734 28.4883 175.863 27.6914 175.863 26.8008V26.543C175.863 25.6523 175.734 24.8594 175.477 24.1641C175.227 23.4609 174.852 22.9102 174.352 22.5117C173.852 22.1055 173.23 21.9023 172.488 21.9023C171.754 21.9023 171.137 22.1055 170.637 22.5117C170.137 22.9102 169.762 23.4609 169.512 24.1641C169.262 24.8594 169.137 25.6523 169.137 26.543V26.8008C169.137 27.6914 169.262 28.4883 169.512 29.1914C169.762 29.8867 170.137 30.4375 170.637 30.8438C171.145 31.2422 171.77 31.4414 172.512 31.4414ZM179.684 33V31.5234L181.594 31.1953V22.0312H179.613V20.3203H181.594V18.9492C181.594 17.5273 182.012 16.4258 182.848 15.6445C183.684 14.8633 184.84 14.4727 186.316 14.4727C186.832 14.4727 187.348 14.5352 187.863 14.6602C188.379 14.7852 188.973 14.9609 189.645 15.1875L189.258 17.0625C188.844 16.8984 188.402 16.7578 187.934 16.6406C187.465 16.5234 186.984 16.4648 186.492 16.4648C185.57 16.4648 184.906 16.668 184.5 17.0742C184.102 17.4805 183.902 18.1055 183.902 18.9492V20.3203H191.133V31.1953L193.043 31.5234V33H186.914V31.5234L188.824 31.1953V22.0312H183.902V31.1953L185.812 31.5234V33H179.684ZM194.367 33V31.5234L196.277 31.1953V16.5352L194.367 16.207V14.7188H198.586V31.1953L200.496 31.5234V33H194.367ZM207.691 33.2461C206.52 33.2461 205.5 32.9805 204.633 32.4492C203.766 31.9102 203.094 31.1641 202.617 30.2109C202.148 29.2578 201.914 28.1562 201.914 26.9062V26.3906C201.914 25.1875 202.16 24.1133 202.652 23.168C203.152 22.2148 203.812 21.4648 204.633 20.918C205.461 20.3633 206.363 20.0859 207.34 20.0859C208.48 20.0859 209.434 20.3203 210.199 20.7891C210.973 21.2578 211.555 21.918 211.945 22.7695C212.336 23.6133 212.531 24.6094 212.531 25.7578V27.1992H204.305L204.27 27.2578C204.285 28.0703 204.426 28.793 204.691 29.4258C204.965 30.0508 205.355 30.543 205.863 30.9023C206.371 31.2617 206.98 31.4414 207.691 31.4414C208.473 31.4414 209.156 31.332 209.742 31.1133C210.336 30.8867 210.848 30.5781 211.277 30.1875L212.18 31.6875C211.727 32.125 211.125 32.4961 210.375 32.8008C209.633 33.0977 208.738 33.2461 207.691 33.2461ZM204.375 25.3945H210.223V25.0898C210.223 24.4805 210.113 23.9375 209.895 23.4609C209.684 22.9766 209.363 22.5977 208.934 22.3242C208.512 22.043 207.98 21.9023 207.34 21.9023C206.824 21.9023 206.355 22.0547 205.934 22.3594C205.512 22.6562 205.164 23.0625 204.891 23.5781C204.617 24.0938 204.438 24.6797 204.352 25.3359L204.375 25.3945Z" fill="white"/>
<path fill-rule="evenodd" clip-rule="evenodd" d="M24 0C10.7464 0 0 11.0149 0 24.612C0 35.4876 6.87857 44.7024 16.4143 47.9597C17.6143 48.1847 18.0536 47.4239 18.0536 46.7703C18.0536 46.181 18.0321 44.6381 18.0214 42.5808C11.3464 44.0702 9.93214 39.2806 9.93214 39.2806C8.83929 36.4412 7.26429 35.6805 7.26429 35.6805C5.08929 34.1482 7.425 34.1804 7.425 34.1804C9.83571 34.3518 11.1 36.7198 11.1 36.7198C13.2429 40.4807 16.7143 39.3985 18.0857 38.7663C18.3 37.1805 18.9214 36.0876 19.6071 35.4769C14.2821 34.8554 8.67857 32.7446 8.67857 23.3155C8.67857 20.6261 9.61071 18.4295 11.1429 16.7152C10.8964 16.0937 10.0714 13.5864 11.3786 10.2005C11.3786 10.2005 13.3929 9.53622 17.9786 12.7185C19.8964 12.1721 21.9429 11.9042 23.9893 11.8935C26.025 11.9042 28.0821 12.1721 30 12.7185C34.5857 9.53622 36.5893 10.2005 36.5893 10.2005C37.8964 13.5864 37.0714 16.0937 36.825 16.7152C38.3571 18.4403 39.2893 20.6368 39.2893 23.3155C39.2893 32.766 33.675 34.8447 28.3286 35.4554C29.1857 36.2162 29.9571 37.7163 29.9571 40.0093C29.9571 43.2987 29.925 45.956 29.925 46.7596C29.925 47.4132 30.3536 48.1847 31.575 47.9382C41.1321 44.6916 48 35.4769 48 24.612C48 11.0149 37.2536 0 24 0Z" fill="white"/>
</svg>
