<svg width="400" height="440" viewBox="0 0 400 440" fill="none" xmlns="http://www.w3.org/2000/svg">
<g clip-path="url(#clip0_415_148)">
<path d="M277.757 89.1306C250.028 84.7039 218.452 82.3418 185.568 82.3418C155.472 82.3418 126.477 84.3172 100.528 88.0417C100.534 87.6431 100.54 87.2445 100.557 86.8458C101.245 63.7068 110.954 41.7548 127.607 25.6817C144.261 9.60866 166.539 0.689703 189.68 0.831124C212.82 0.972546 234.987 10.1631 251.444 26.4385C267.9 42.7139 277.339 64.783 277.745 87.9287C277.751 88.3333 277.757 88.7319 277.757 89.1306Z" fill="#0969DA"/>
<g opacity="0.1">
<path opacity="0.1" d="M200.764 0.798064C188.456 -0.864943 175.937 0.077601 164.017 3.56461C152.097 7.05161 141.042 13.0053 131.569 21.0397C122.096 29.0741 114.417 39.0101 109.028 50.2035C103.64 61.397 100.662 73.5982 100.289 86.0164C100.271 86.4151 100.265 86.8137 100.26 87.2123C107.969 86.1058 115.952 85.1576 124.148 84.3658C125.151 63.6776 133.362 43.9933 147.357 28.7286C161.352 13.4639 180.247 3.58217 200.764 0.798064Z" fill="white"/>
</g>
<path d="M316.524 96.1632C303.76 92.7019 290.813 89.9528 277.745 87.9287C256.324 84.6082 234.73 82.5322 213.07 81.7111C204.047 81.3422 194.858 81.1519 185.568 81.1519C178.204 81.1519 170.9 81.2708 163.698 81.5088C142.569 82.1333 121.491 83.915 100.557 86.8458C85.0611 88.9804 69.7153 92.0924 54.6115 96.1632C19.3953 105.903 1.52588e-05 118.957 1.52588e-05 132.915C1.52588e-05 146.873 19.3953 159.927 54.6115 169.667C79.3777 176.521 109.913 181.192 143.185 183.334C156.918 184.226 171.115 184.679 185.568 184.679C200.068 184.679 214.313 184.22 228.088 183.328C258.367 181.37 286.381 177.319 309.826 171.428C309.951 171.393 310.07 171.363 310.195 171.333C311.777 170.94 313.335 170.53 314.876 170.119C315.429 169.965 315.976 169.816 316.524 169.667C316.554 169.655 316.586 169.645 316.619 169.637C317.142 169.495 317.659 169.346 318.177 169.203C319.212 168.906 320.235 168.614 321.24 168.311C321.288 168.299 321.329 168.287 321.371 168.275C322.245 168.013 323.102 167.751 323.952 167.49C324.648 167.269 325.338 167.055 326.022 166.835C326.522 166.674 327.015 166.514 327.503 166.353C327.86 166.234 328.211 166.121 328.556 166.002C329.026 165.847 329.495 165.687 329.959 165.526C330.156 165.461 330.352 165.395 330.542 165.324C330.988 165.175 331.422 165.02 331.857 164.866C332.326 164.699 332.796 164.527 333.26 164.36C333.647 164.223 334.034 164.08 334.414 163.938C334.735 163.813 335.051 163.694 335.372 163.575C336.246 163.247 337.103 162.908 337.947 162.575C338.369 162.402 338.792 162.236 339.208 162.063C339.618 161.897 340.035 161.724 340.439 161.552C341.105 161.272 341.759 160.992 342.402 160.713C342.711 160.57 343.026 160.433 343.33 160.302C343.562 160.195 343.788 160.094 344.02 159.987C344.186 159.915 344.353 159.838 344.513 159.761C345.114 159.487 345.709 159.207 346.292 158.928C348.528 157.857 350.616 156.762 352.554 155.644C364.717 148.676 371.135 140.947 371.135 132.915C371.135 118.957 351.74 105.903 316.524 96.1632ZM316.202 168.525C291.407 175.385 260.788 180.056 227.427 182.18C213.861 183.042 199.836 183.489 185.568 183.489C171.347 183.489 157.37 183.048 143.845 182.186C110.43 180.067 79.7642 175.397 54.9327 168.525C20.2756 158.934 1.18955 146.29 1.18955 132.915C1.19149 131.733 1.33936 130.556 1.62982 129.411C4.6629 117.345 23.3208 106.052 54.9327 97.3056C69.9223 93.2665 85.1506 90.1724 100.528 88.0417C121.587 85.0943 142.793 83.3066 164.049 82.6869C171.139 82.4549 178.312 82.3398 185.568 82.3418C194.733 82.3418 203.797 82.5263 212.707 82.8832C234.493 83.697 256.213 85.783 277.757 89.1305C290.712 91.1456 303.547 93.8748 316.202 97.3056C347.808 106.052 366.46 117.339 369.499 129.399C369.795 130.548 369.945 131.729 369.946 132.915C369.946 146.29 350.86 158.934 316.202 168.525Z" fill="#3F3D56"/>
<path d="M370.796 133.457C370.796 141.406 364.248 148.926 352.554 155.644C350.61 156.762 348.516 157.857 346.292 158.928C345.709 159.207 345.114 159.487 344.513 159.761C344.353 159.838 344.186 159.915 344.02 159.987C343.788 160.094 343.562 160.195 343.33 160.302C343.026 160.433 342.711 160.57 342.402 160.713C341.759 160.992 341.105 161.272 340.439 161.552C340.035 161.724 339.618 161.897 339.208 162.063C338.792 162.236 338.369 162.402 337.947 162.575C337.103 162.908 336.246 163.247 335.372 163.575C335.05 163.694 334.735 163.813 334.414 163.938C334.033 164.08 333.647 164.223 333.26 164.36C332.796 164.527 332.326 164.699 331.856 164.866C331.422 165.02 330.988 165.175 330.542 165.324C330.352 165.395 330.156 165.461 329.959 165.526C329.495 165.687 329.026 165.847 328.556 166.002C328.211 166.121 327.86 166.234 327.503 166.353C327.015 166.514 326.521 166.674 326.022 166.835C325.338 167.055 324.648 167.269 323.952 167.49C323.102 167.751 322.245 168.013 321.371 168.275C321.329 168.287 321.287 168.299 321.24 168.311C320.235 168.614 319.212 168.906 318.177 169.203C317.659 169.346 317.142 169.495 316.618 169.637C316.586 169.645 316.554 169.655 316.524 169.667C315.976 169.816 315.429 169.965 314.876 170.119C313.341 170.524 311.777 170.934 310.195 171.333C310.07 171.363 309.951 171.393 309.826 171.428C287.017 177.128 259.033 181.281 228.064 183.286C214.497 184.161 200.353 184.625 185.823 184.625C171.162 184.625 156.9 184.155 143.226 183.262C61.6 177.937 0.850601 157.66 0.850601 133.457C0.857028 131.984 1.08143 130.52 1.51652 129.113C1.55224 129.214 1.58796 129.31 1.62978 129.411C10.1168 151.711 70.3493 169.733 148.502 174.13C160.474 174.808 172.875 175.159 185.568 175.159C198.313 175.159 210.762 174.802 222.782 174.124C300.869 169.709 361.042 151.681 369.499 129.399C369.642 129.042 369.767 128.685 369.874 128.328C370.477 129.971 370.789 131.706 370.796 133.457Z" fill="#3F3D56"/>
<path d="M54.5219 127.052C44.6234 127.052 34.1031 124.922 34.1031 120.973C34.1031 117.025 44.6234 114.895 54.5219 114.895C64.4205 114.895 74.9407 117.025 74.9407 120.973C74.9407 124.922 64.4205 127.052 54.5219 127.052ZM54.5219 116.085C43.1898 116.085 35.2927 118.661 35.2927 120.973C35.2927 123.286 43.1898 125.862 54.5219 125.862C65.854 125.862 73.7512 123.286 73.7512 120.973C73.7512 118.661 65.854 116.085 54.5219 116.085Z" fill="#3F3D56"/>
<path d="M96.7504 155.016C86.8519 155.016 76.3317 152.886 76.3317 148.938C76.3317 144.989 86.8519 142.859 96.7504 142.859C106.649 142.859 117.169 144.989 117.169 148.938C117.169 152.886 106.649 155.016 96.7504 155.016ZM96.7504 144.049C85.4184 144.049 77.5212 146.625 77.5212 148.938C77.5212 151.25 85.4184 153.826 96.7504 153.826C108.082 153.826 115.98 151.25 115.98 148.938C115.98 146.625 108.082 144.049 96.7504 144.049Z" fill="#3F3D56"/>
<path d="M316.22 127.052C306.321 127.052 295.801 124.922 295.801 120.973C295.801 117.025 306.321 114.895 316.22 114.895C326.118 114.895 336.638 117.025 336.638 120.973C336.638 124.922 326.118 127.052 316.22 127.052ZM316.22 116.085C304.888 116.085 296.99 118.661 296.99 120.973C296.99 123.286 304.888 125.862 316.22 125.862C327.552 125.862 335.449 123.286 335.449 120.973C335.449 118.661 327.552 116.085 316.22 116.085Z" fill="#3F3D56"/>
<path d="M273.991 155.016C264.093 155.016 253.572 152.886 253.572 148.938C253.572 144.989 264.093 142.859 273.991 142.859C283.89 142.859 294.41 144.989 294.41 148.938C294.41 152.886 283.89 155.016 273.991 155.016ZM273.991 144.049C262.659 144.049 254.762 146.625 254.762 148.938C254.762 151.25 262.659 153.826 273.991 153.826C285.323 153.826 293.22 151.25 293.22 148.938C293.22 146.625 285.323 144.049 273.991 144.049Z" fill="#3F3D56"/>
<path d="M185.371 168.106C175.472 168.106 164.952 165.976 164.952 162.027C164.952 158.079 175.472 155.948 185.371 155.948C195.269 155.948 205.79 158.079 205.79 162.027C205.79 165.976 195.269 168.106 185.371 168.106ZM185.371 157.138C174.039 157.138 166.142 159.715 166.142 162.027C166.142 164.339 174.039 166.916 185.371 166.916C196.703 166.916 204.6 164.339 204.6 162.027C204.6 159.715 196.703 157.138 185.371 157.138Z" fill="#3F3D56"/>
<path d="M200.424 293.157C214.224 293.157 225.411 281.966 225.411 268.161C225.411 254.355 214.224 243.164 200.424 243.164C186.623 243.164 175.436 254.355 175.436 268.161C175.436 281.966 186.623 293.157 200.424 293.157Z" fill="#2F2E41"/>
<path d="M190.922 284.583L178.76 290.676L182.16 297.466L194.321 291.374L190.922 284.583Z" fill="#2F2E41"/>
<path d="M183.763 296.777C184.484 295.683 182.704 293.236 179.787 291.312C176.871 289.388 173.921 288.716 173.2 289.81C172.479 290.904 174.259 293.351 177.176 295.274C180.092 297.198 183.042 297.871 183.763 296.777Z" fill="#2F2E41"/>
<path d="M209.926 284.583L206.526 291.374L218.688 297.466L222.087 290.676L209.926 284.583Z" fill="#2F2E41"/>
<path d="M223.671 295.274C226.588 293.351 228.368 290.904 227.647 289.81C226.926 288.716 223.976 289.388 221.06 291.312C218.143 293.236 216.363 295.683 217.084 296.777C217.805 297.871 220.755 297.198 223.671 295.274Z" fill="#2F2E41"/>
<path d="M198.674 270.589C203.391 270.589 207.214 266.765 207.214 262.046C207.214 257.328 203.391 253.503 198.674 253.503C193.958 253.503 190.134 257.328 190.134 262.046C190.134 266.765 193.958 270.589 198.674 270.589Z" fill="white"/>
<path d="M200.752 260.408C201.859 259.301 201.852 257.499 200.737 256.384C199.622 255.268 197.821 255.262 196.714 256.37C195.607 257.477 195.613 259.279 196.728 260.394C197.843 261.509 199.645 261.516 200.752 260.408Z" fill="#3F3D56"/>
<path d="M220.135 240.967C220.511 231.713 212.538 223.875 202.327 223.46C192.117 223.045 183.535 230.21 183.159 239.465C182.783 248.719 189.881 250.821 200.092 251.236C210.302 251.651 219.759 250.221 220.135 240.967Z" fill="#0969DA"/>
<path d="M234.539 281.25C236.182 279.838 233.871 274.448 229.377 269.211C224.882 263.973 219.906 260.872 218.262 262.283C216.619 263.695 218.93 269.085 223.425 274.322C227.919 279.56 232.895 282.661 234.539 281.25Z" fill="#2F2E41"/>
<path d="M177.492 274.322C181.987 269.085 184.298 263.695 182.654 262.283C181.011 260.872 176.035 263.973 171.54 269.211C167.046 274.448 164.735 279.838 166.378 281.25C168.022 282.661 172.998 279.56 177.492 274.322Z" fill="#2F2E41"/>
<path d="M207.286 278.011C207.557 279.497 207.226 281.03 206.367 282.272C205.508 283.514 204.19 284.364 202.705 284.635C201.219 284.905 199.687 284.574 198.445 283.715C197.204 282.855 196.354 281.538 196.084 280.051L196.082 280.04C195.522 276.945 197.914 275.85 201.008 275.29C204.102 274.729 206.726 274.916 207.286 278.011Z" fill="white"/>
<path d="M158.208 294.75C157.893 294.75 157.59 294.625 157.367 294.402C157.144 294.178 157.019 293.876 157.019 293.56V223.352C157.019 223.037 157.144 222.734 157.367 222.511C157.59 222.288 157.893 222.162 158.208 222.162C158.524 222.162 158.826 222.288 159.049 222.511C159.272 222.734 159.398 223.037 159.398 223.352V293.56C159.398 293.876 159.272 294.178 159.049 294.402C158.826 294.625 158.524 294.75 158.208 294.75Z" fill="#CCCCCC"/>
<path d="M140.365 357.818C140.05 357.818 139.747 357.693 139.524 357.47C139.301 357.246 139.176 356.944 139.176 356.628V305.46C139.176 305.144 139.301 304.841 139.524 304.618C139.747 304.395 140.05 304.27 140.365 304.27C140.681 304.27 140.983 304.395 141.206 304.618C141.429 304.841 141.555 305.144 141.555 305.46V356.628C141.555 356.944 141.429 357.246 141.206 357.47C140.983 357.693 140.681 357.818 140.365 357.818Z" fill="#CCCCCC"/>
<path d="M186.162 315.574C185.847 315.574 185.544 315.449 185.321 315.226C185.098 315.003 184.973 314.7 184.973 314.385V244.177C184.973 243.861 185.098 243.559 185.321 243.335C185.544 243.112 185.847 242.987 186.162 242.987C186.478 242.987 186.78 243.112 187.003 243.335C187.226 243.559 187.352 243.861 187.352 244.177V314.385C187.352 314.7 187.226 315.003 187.003 315.226C186.78 315.449 186.478 315.574 186.162 315.574Z" fill="#CCCCCC"/>
<path d="M168.914 366.148C168.599 366.148 168.296 366.022 168.073 365.799C167.85 365.576 167.725 365.273 167.724 364.958V336.399C167.724 336.083 167.85 335.781 168.073 335.557C168.296 335.334 168.599 335.209 168.914 335.209C169.23 335.209 169.532 335.334 169.755 335.557C169.978 335.781 170.104 336.083 170.104 336.399V364.958C170.104 365.273 169.978 365.576 169.755 365.799C169.532 366.022 169.23 366.148 168.914 366.148Z" fill="#CCCCCC"/>
<path d="M193.3 219.783C192.984 219.783 192.681 219.657 192.458 219.434C192.235 219.211 192.11 218.908 192.11 218.593V190.033C192.11 189.718 192.235 189.415 192.458 189.192C192.681 188.969 192.984 188.844 193.3 188.844C193.615 188.844 193.918 188.969 194.141 189.192C194.364 189.415 194.489 189.718 194.489 190.033V218.593C194.489 218.908 194.364 219.211 194.141 219.434C193.918 219.657 193.615 219.783 193.3 219.783Z" fill="#CCCCCC"/>
<path d="M133.823 232.277C133.507 232.277 133.205 232.152 132.982 231.928C132.759 231.705 132.633 231.403 132.633 231.087V202.528C132.633 202.212 132.759 201.91 132.982 201.687C133.205 201.463 133.507 201.338 133.823 201.338C134.138 201.338 134.441 201.463 134.664 201.687C134.887 201.91 135.012 202.212 135.012 202.528V231.087C135.012 231.403 134.887 231.705 134.664 231.928C134.441 232.152 134.138 232.277 133.823 232.277Z" fill="#CCCCCC"/>
<path d="M237.312 235.252C236.997 235.252 236.694 235.127 236.471 234.903C236.248 234.68 236.123 234.378 236.123 234.062V205.503C236.123 205.187 236.248 204.885 236.471 204.662C236.694 204.438 236.997 204.313 237.312 204.313C237.628 204.313 237.93 204.438 238.153 204.662C238.376 204.885 238.502 205.187 238.502 205.503V234.062C238.502 234.378 238.376 234.68 238.153 234.903C237.93 235.127 237.628 235.252 237.312 235.252Z" fill="#CCCCCC"/>
<path d="M234.933 324.499C234.618 324.499 234.315 324.374 234.092 324.151C233.869 323.928 233.744 323.625 233.744 323.309V288.8C233.744 288.485 233.869 288.182 234.092 287.959C234.315 287.736 234.618 287.61 234.933 287.61C235.249 287.61 235.551 287.736 235.774 287.959C235.997 288.182 236.123 288.485 236.123 288.8V323.309C236.123 323.625 235.997 323.928 235.774 324.151C235.551 324.374 235.249 324.499 234.933 324.499Z" fill="#CCCCCC"/>
<path d="M211.143 354.843C210.827 354.843 210.525 354.718 210.301 354.495C210.078 354.271 209.953 353.969 209.953 353.653V302.485C209.953 302.169 210.078 301.867 210.301 301.643C210.524 301.42 210.827 301.295 211.143 301.295C211.458 301.295 211.761 301.42 211.984 301.643C212.207 301.867 212.332 302.169 212.332 302.485V353.653C212.332 353.969 212.207 354.271 211.984 354.495C211.761 354.718 211.458 354.843 211.143 354.843Z" fill="#CCCCCC"/>
<path d="M215.901 267.381C215.585 267.381 215.283 267.256 215.06 267.032C214.836 266.809 214.711 266.507 214.711 266.191V195.983C214.711 195.668 214.836 195.365 215.06 195.142C215.283 194.919 215.585 194.793 215.901 194.793C216.216 194.793 216.519 194.919 216.742 195.142C216.965 195.365 217.09 195.668 217.09 195.983V266.191C217.09 266.507 216.965 266.809 216.742 267.032C216.519 267.256 216.216 267.381 215.901 267.381Z" fill="#CCCCCC"/>
<path d="M361.734 416.779C363.436 415.353 361.135 409.799 356.594 404.373C352.054 398.948 346.992 395.706 345.29 397.132C343.587 398.558 345.888 404.112 350.429 409.537C354.97 414.963 360.031 418.205 361.734 416.779Z" fill="#2F2E41"/>
<path d="M350.568 410.609C355.041 397.184 347.788 382.672 334.367 378.197C320.946 373.722 306.44 380.977 301.967 394.403C297.493 407.829 304.746 422.34 318.167 426.816C331.588 431.291 346.094 424.035 350.568 410.609Z" fill="#2F2E41"/>
<path d="M337.109 422.616H329.327V436.564H337.109V422.616Z" fill="#2F2E41"/>
<path d="M321.545 422.616H313.764V436.564H321.545V422.616Z" fill="#2F2E41"/>
<path d="M330.624 439.159C334.206 439.159 337.109 438.069 337.109 436.726C337.109 435.382 334.206 434.293 330.624 434.293C327.043 434.293 324.139 435.382 324.139 436.726C324.139 438.069 327.043 439.159 330.624 439.159Z" fill="#2F2E41"/>
<path d="M315.061 438.834C318.642 438.834 321.545 437.745 321.545 436.401C321.545 435.058 318.642 433.969 315.061 433.969C311.479 433.969 308.576 435.058 308.576 436.401C308.576 437.745 311.479 438.834 315.061 438.834Z" fill="#2F2E41"/>
<path d="M318.224 370.296C320.511 361.081 330.608 355.659 340.775 358.184C350.942 360.71 357.329 370.227 355.042 379.441C352.755 388.656 345.167 388.686 335 386.16C324.833 383.635 315.937 379.51 318.224 370.296Z" fill="#216E39"/>
<path d="M308.988 396.107C309.94 394.1 305.53 390.014 299.139 386.982C292.748 383.95 286.796 383.119 285.844 385.126C284.892 387.133 289.302 391.218 295.693 394.25C302.084 397.283 308.036 398.114 308.988 396.107Z" fill="#2F2E41"/>
<path d="M322.438 405.642C327.154 405.642 330.978 401.818 330.978 397.099C330.978 392.381 327.154 388.556 322.438 388.556C317.721 388.556 313.898 392.381 313.898 397.099C313.898 401.818 317.721 405.642 322.438 405.642Z" fill="white"/>
<path d="M318.928 396.885C320.5 396.885 321.774 395.61 321.774 394.037C321.774 392.464 320.5 391.189 318.928 391.189C317.356 391.189 316.081 392.464 316.081 394.037C316.081 395.61 317.356 396.885 318.928 396.885Z" fill="#3F3D56"/>
<path d="M322.364 418.506C324.335 418.506 325.933 416.908 325.933 414.936C325.933 412.965 324.335 411.366 322.364 411.366C320.393 411.366 318.796 412.965 318.796 414.936C318.796 416.908 320.393 418.506 322.364 418.506Z" fill="white"/>
<path d="M399.405 439.331H259.04C258.882 439.331 258.731 439.268 258.62 439.156C258.508 439.045 258.445 438.893 258.445 438.736C258.445 438.578 258.508 438.426 258.62 438.315C258.731 438.203 258.882 438.141 259.04 438.141H399.405C399.563 438.141 399.714 438.203 399.826 438.315C399.937 438.426 400 438.578 400 438.736C400 438.893 399.937 439.045 399.826 439.156C399.714 439.268 399.563 439.331 399.405 439.331Z" fill="#3F3D56"/>
</g>
<defs>
<clipPath id="clip0_415_148">
<rect width="400" height="439.331" fill="white"/>
</clipPath>
</defs>
</svg>
